<svg clip-rule="evenodd" fill-rule="evenodd" height="45.266277" stroke-linejoin="round" stroke-miterlimit="2" viewBox="0 0 45.521717 45.266277" width="45.521717" xmlns="http://www.w3.org/2000/svg"><g fill-rule="nonzero" transform="translate(-.003283 -5.156724)"><path d="m45.507 27.589c0-.467-.385-.854-.849-.854-.07 0-.132.009-.202.026-7.54 1.559-15.396 2.175-23.445 1.735-2.478-.132-4.922 0-7.321.185-.184.018-.368.035-.543.062-1.927.264-3.758 1.109-5.194 2.501-1.27 1.232-2.163 2.826-2.548 4.552-.456 2.079-.132 4.227.753 6.156.858 1.867 2.233 3.487 3.932 4.649 1.848 1.233 3.889 2.202 6.026 2.844 1.348.406 2.548.652 3.958.828.018-.528.832-1.365.859-1.761.026-.396-.281-.757-.675-.784-2.207.08-3.827.027-5.894-.739-2.119-.793-4.046-2.096-5.57-3.778-.736-.801-1.34-1.691-1.725-2.712-.386-1.013-.552-2.105-.491-3.188.21-3.637 3.048-6.71 6.674-7.23 2.005-.29 4.081.229 5.71 1.418.85.625 1.585 1.418 2.119 2.325.605 1.021 1.113 2.104 1.463 3.249.736 2.369.797 4.967.482 7.415-.141 1.039-.351 2.069-.649 3.073-.166.572-.367 1.145-.595 1.691-.044.105-.061.211-.061.326 0 .466.367.836.832.845h.21c5.579 0 10.685-1.999 14.643-5.31 0 0 .009 0 .018-.009.157-.158.254-.37.254-.599 0-.176-.062-.325-.14-.466-1.48-2.563-4.712-6.244-4.712-6.244s3.652 3.258 6.279 4.685c.14.079.298.141.473.141.237 0 .447-.097.596-.247 0-.008.017-.017.026-.026 3.328-3.936 5.325-9.009 5.325-14.548v-.211" fill="#0b8bee"/><path d="m4.309 37.954c-.902-1.982-1.454-4.13-1.585-6.305-.018-.291-.009-.687-.018-.987 0-.405-.332-.739-.735-.739s-1.27.739-1.883.739c.622 4.782 2.794 9.308 6.157 12.787 1.637 1.708 3.678 3.02 5.99 3.645 1.988.538 4.09.291 5.929-.625.876-.44 1.682-1.039 2.356-1.761.709-.766 1.261-1.7 1.769-2.607.535-.959.999-1.963 1.419-2.976.447-1.083.815-2.193 1.305-3.258 1.848-4.025 4.458-7.705 7.979-10.444 1.725-1.339 3.599-2.466 5.596-3.346 1.016-.449 2.058-.828 3.118-1.154.508-.15 1.024-.291 1.541-.414.464-.141.718-.634.569-1.083-1.296-3.249-3.363-6.182-5.981-8.507-.018-.017-.035-.026-.053-.044-.149-.132-.341-.211-.56-.211-.228 0-.43.141-.613.264-4.195 2.906-7.296 7.75-7.296 7.75s1.638-4.139 5.132-9.247c.088-.123.123-.282.123-.44 0-.291-.14-.546-.359-.696-.026-.017-.053-.035-.088-.053-2.154-1.25-4.519-2.157-6.98-2.641-1.786-.361-3.626-.502-5.447-.423h-.044c-.455.018-.806.387-.823.845-.228 5.944.937 16.168.937 16.168s-2.085-10.074-4.143-15.666c-.122-.343-.429-.599-.806-.599-.052 0-.113 0-.166.018h-.017c-.149.044-.298.079-.438.123-3.433 1.013-6.613 2.845-9.205 5.293-.447.422-.876.863-1.287 1.321-.009.008-.018.026-.027.026-.14.15-.227.352-.227.572 0 .221.079.476.254.599 4.484 3.391 7.794 7.256 7.794 7.256s-4.239-3.117-9.292-5.098c-.14-.053-.28-.124-.438-.124-.289 0-.552.15-.709.37v.018c-.736 1.233-1.349 2.545-1.831 3.892-.621 1.735-1.016 3.531-1.199 5.345-.044.467-.079.943.402 1.198.193.106.394.123.605.079.315-.061.621-.123.937-.176 1.2-.194 2.426-.29 3.634-.273 2.435.027 4.87.467 7.156 1.312 2.11.784 4.037 2.017 5.491 3.734 2.75 3.249 4.212 8.832 1.042 12.284-1.445 1.594-3.591 2.369-5.736 2.175-1.104-.105-2.076-.484-3.039-1.004-.876-.475-1.708-1.021-2.461-1.681-1.629-1.436-2.873-3.303-3.758-5.266" fill="#ffcd00"/></g></svg>